<?xml version="1.0" encoding="UTF-8"?>
<svg width="110mm" height="97mm" version="1.1" xmlns="http://www.w3.org/2000/svg">
 <g transform="translate(0 -708.66)">
  <g transform="translate(627.21 492.4)">
   <path d="m-534.88 235.4c-17.07 36.96 10.421 56.944 18.435 84.348 22.289-7.3971 46.542-6.9409 65.155-29.042 0.4586 24.737-15.679 39.639-33.082 53.791-19.116 10.546-36.666 28.396-57.579 30.557-47.385-17.629-30.305-48.151-45.457-72.226 14.707-23.036 19.461-48.063 52.528-67.428z" fill="#c83737"/>
   <path d="m-532.35 388.94c-11.973-26.585-0.89388-63.761-36.365-79.55 4.2431 12.156 0.64503 16.471-1.5152 22.223-5.4768-11.195-17.279-11.162 2.7779-67.68-11.754 16.139-48.876 61.798-7.3236 110.36l-12.879-2.7779c27.661 19.652 45.666 5.6582 52.275 21.718z" fill="#f60"/>
   <path d="m-576.8 414.96-0.50508 17.173-4.2932-0.25254c-8.5385 13.598-13.385 29.412-18.688 44.952-0.7755 1.6776-0.48706 3.7099 0.75761 6.0609 2.3086 3.4514 2.6978 6.9027 3.7881 10.354-0.024 2.8842-1.2539 4.7634-5.3033 4.2932-7.7803-0.90213-10.064-5.4688-14.142-8.8388 1.4084-1.8746 1.4107-5.1553 1.5152-8.3338 7.1774-16.202 13-35.114 21.971-47.73 5.698-10.647 10.546-15.771 14.9-17.678z" fill="#2b1100"/>
   <path d="m-541.44 437.68c-9.0295 5.2253-20.575 18.567-34.345 21.466-2.018 3.2398-3.1124 6.0177-3.7881 8.5863l-0.25254 5.0508c17.728-5.1589 31.864-21.336 40.406-31.062z" fill="#2b1100"/>
   <path d="m-254.56 387.05-4.0406-7.1973-49.371-22.728-16.036-20.708 30.542-31.126-29.532-0.56744-39.017 7.7024 1.5152-28.537-23.739 12.753c-13.779 15.447-24.233 30.894-35.482 46.341-27.636 8.3632-51.129 23.828-74.12 40.154 0.52553-2.9832 1.8422-5.7687 5.0508-8.0812-11.359-5.357-21.803-5.2246-31.82-2.5254 6.5293-6.109 13.763-12.461 39.42-25.166 37.925-31.809 28.988-41.803 30-56.429-5.0161 27.706-20.218 35.039-40 33.214 27.462-33.899 53.426-68.464 68.929-107.68-20.878 21.768-42.757 40.116-71.607 34.643-12.022-5.6876-7.0099-14.989 3.0357-25.357-80.651 48.527-72.83 151.74-51.622 161.42-5.8596 7.2115-11.091 14.297-20.164 22.151-4.375 1.4326-8.75 1.9195-13.125 0-8.4146 7.27-4.6454 16.414-5.0893 24.911 1.8768 5.4254 5.7024 9.5516 9.5536 13.661l5.8036 0.17857c11.33-7.0074 17.412-17.295 23.482-27.589l-2.4107 13.214c-1.7999 6.3988-1.4978 12.798-0.625 19.196l1.875 2.2321 3.6607 0.0893c10.527-5.7237 19.095-12.566 24.911-20.982l9.8827 1.6777c-5.8474 9.8715-9.4424 20.869-12.627 32.072 83.882-6.3832 171.19-68.302 262.77-80.938z" fill="#ff7f2a"/>
   <path d="m-363.78 307.54 4.8438-0.24553c1.0698-9.5426 6.6883-19.927 4.1741-29.933-12.964-1.1778-21.164 10.277-30.022 19.754 3.1601 5.265 5.2807 10.461 10.469 12.121z" fill="#2b1100"/>
   <path d="m-262.77 398.23v-11.869c-15.914-4.8948-30.701-5.9657-47.603-10.543l2.7779 3.283c-4.1316-0.97145-9.7241-2.6734-15.152-4.2932-9.4725-19.466-18.195-18.67-27.022-20.708l5.0508-4.0406c-13.568 0.0479-18.554-5.6965-57.326 11.364-2.4524-2.357-0.70173-4.714 0-7.0711-6.94 1.8563-9.7068 7.4219-10.607 14.647-8.4194 0.14599-13.179-3.8907-16.92-9.0914-4.1889 7.6603-0.86882 15.321-1.2627 22.981-4.7885-4.2634-6.331-9.8251-7.8287-15.405l1.0102 18.435-8.8388 2.7779c18.255 2.7082 11.018 15.163 7.3236 26.264-17.308 21.742-34.511 43.618-63.64 50.255-1.151-1.8588-1.0374-4.0338 0.50508-6.566-6.0153-0.0482-9.5039 3.062-12.879 6.3135l-1.0102-3.283c-4.3283 11.173-12.413 17.65-19.193 25.759 3.4595-1.9497 7.3063-4.545 8.8388-3.283 1.8968 2.357-1.4314 4.714-2.5254 7.0711l9.0914-0.75761c17.148-8.3261 35.127-14.783 49.75-28.789l39.648 3.7881c44.155-49.995 101.67-70.53 167.81-67.238z" fill="#d40000"/>
   <path d="m-393.45 383.39-35.86 1.2627c-0.22987 3.8086-8e-3 7.4666 1.7678 10.607-2.6126 0.72322-4.285-0.90434-5.5558-3.5355 0.60544 5.0394-0.74673 9.7526 3.5355 15.405-0.18323 1.6758-1.4365 1.0587-2.7779 0.25253 3.1884 8.9283 3.6188 10.244-9.849 24.749-0.74077 0.70551-1.3559 0.67574-1.5152-2.0203-5.8582 14.615-38.218 35.012-43.689 37.123 7.0876 2.6096 0.97759 5.2191-0.50508 7.8287 8.3367-4.2244 17.862-13.513 17.862-13.513 40.886 15.919 71.224-35.337 95.528-45.076z" fill="#800000"/>
   <path d="m-408.69 460.58 18.036 6.4286-6.25 12.143c-15.27-0.11905-33.691-0.2381-45.536-0.35715-10.226-1.2562-12.925-6.2755-18.929-9.6428 16.58-5.6123 27.731-12.233 52.679-8.5714z" fill="#d40000"/>
   <path d="m-261.12 400.81c-2.8983 2.5194-5.9184 5.0184-11.617 7.0711-9.6736 0.59837-17.709 1.3606-31.82 1.5152l1.0102-4.5457c-44.892 6.5136-63.749 22.344-78.792 31.315l8.5863-1.5152c-6.5446 17.189-40.81 42.225-81.317 33.84l-0.50508 3.0305c-8.7433-3.6493-10.162-6.6327-14.142-9.849l11.869-11.617-5.5558 8.8388c14.277 7.3332 37.642-3.5672 53.033-20.456l-5.8084-0.50507c5.5679-4.8171 9.8826-10.171 12.122-16.415-9.0727-7.1244-21.193-3.4676-26.264-24.749 4.2665 2.7271 9.7419 3.943 15.91 4.2932-15.215-7.428-16.928-20.329-14.647-34.85 1.5462 8.5537 25.612 5.7207 40.659 13.89-1.2032-3.8128-0.0645-5.2836 0-7.8287 15.077 19.666 49.189 36.316 62.752 13.48l30.357 4.6429-1.9643-3.2143c12.635 3.9827 22.9 4.4098 33.75 5.7143z" fill="#f4e3d7"/>
   <path d="m-348.15 405.22c-12.509-4.0389-26.834-6.2612-34.464-15.179l1.0714 3.75c-12.984-8.1204-25.307-8.9743-37.857-12.321 1.7414 3.2143 0.86092 6.4286 6.4286 9.6428 0.86881 1.6784-0.96028 1.8152-3.3928 1.6072 3.6235 7.8733 11.068 7.4675 17.321 9.6428-4.879 5.2161-13.335 3.7888-21.429 3.0357 7.4752 11.754 17.979 10.384 28.214 10.179 13.885-5.9057 29.373-6.9994 44.107-10.357z" fill="#fff"/>
   <path d="m-411.72 476.29 2.1429 2.1429 9.8214-0.53571c-7.0066 8.2386-17.644 14.921-27.857 21.786l-8.75 0.89286c-5.6776 1.8693-5.7807 5.1322-8.0357 7.8571l0.71429 3.75c8.0409 0.84893 15.43-0.25638 23.036-0.71428 13.565-10.007 25.423-21.72 35.179-35.536l-0.35714-5.5357c-3.631-3.8126-7.2619-4.2344-10.893-5.8929-3.8544 4.036-5.2382 4.1192-6.7857 4.4643 0.028 1.6071 1.0496 3.2143 3.9286 4.8214l-10-0.17857z" fill="#280b0b"/>
   <path d="m-527.93 479.98 8.3338 10.102c-17.923 13.649-36.751 25.835-50.508 46.214-2.7741 4.6966-0.0656 10.644-0.63135 16.289-0.49393 0.86309-1.3698 1.5734-3.5355 1.7678-3.5086 1.7594-6.6347 1.6063-9.4702 0-3.1439-0.21688-3.3453-1.905-4.672-3.0305-0.27972-2.9463-0.36975-5.8926 1.0102-8.8388 2.5463-5.8306 5.1992-10.701 8.0812-13.511 16.869-16.723 33.856-33.269 51.392-48.992z" fill="#280b0b"/>
   <path d="m-357.34 322.02c3.1593 1.4472 6.3068 2.8976 14.395 3.0305 0.69979-4.7035 3.3467-7.2435 7.0711-8.5863-8.3946-4.5778-14.941-1.025-21.718 1.5152-1.3396 1.5842-0.32921 2.7767 0.25253 4.0406z" fill="#f60"/>
   <path d="m-386.51 336.42c-2.8954 2.7877-5.7912 5.574-9.3439 6.0609 2.1006-10.933 9.5062-20.361 16.794-31.694l-4.0406 1.5152c7.4934-11.982 13.573-26.148 24.496-32.83 2.471 15.044-1.2773 28.533-2.3991 42.679-7.0143 3.674-15.172 5.7468-23.865 7.0711-0.43884 1.2749 1.4696 2.1368 3.9143 2.9042-3.0726 1.6705-6.1451 2.9537-9.2176 3.283-0.35086 1.9082 1.7269 1.3878 3.6618 1.0102z" fill="#f4e3d7"/>
   <path d="m-320.21 322.45c-4.7118-5.6577-3.1275-11.449-3.2143-17.768 10.708-1.3785 21.856-2.4769 32.321-0.80357-16.08 24.539-17.548 16.047-25.244 24.605z" fill="#2b1100"/>
   <path d="m-324.89 335.66c-2.6052-5.1394-8.363-7.126-14.268-8.9651 4.355 0.53292 8.5192 0.89886 10.228-0.88389l-6.4397-1.1364c13.079-9.0846 34.48-19.09 40.027-18.562-4.9481 9.5471-18.768 19.747-29.547 29.547z" fill="#f4e3d7"/>
   <path d="m-257.02 380.17c-3.595 1.1831-5.198 3.7608-7.1973 6.0609 0.34631 4.213-1.6348 4.2561 2.336 14.963 5.5289-2.6306 10.89-5.1592 14.332-11.301 0.57433-1.9782 0.95901-3.9564-0.12627-5.9346-2.9267-1.5446-5.7692-3.2156-9.3439-3.7881z" fill="#280b0b"/>
   <path d="m-470.47 392.01c-19.543 9.74-30.357 25.714-45.536 38.571-6.9379 7.0899-13.175 14.355-23.75 20.536-1.5592 0.37749-2.4884 1.805-5.3571 0-1.3478-8.8053-0.37837-17.147 3.0357-25-2.7983 2.9046-13.792 13.419-22.857 22.143l-6.4286-0.35714c-3.8197-3.9197-7.8281-7.826-8.5714-11.964l-1.25-11.786c1.8117 3.638 3.484 5.3235 4.8214 2.3214 13.229 15.601 22.757-2.375 32.679-16.786 1.1855 7.4504 6.9443 5.7543 14.286 0.89286l-0.35714 5.5357c10.23 3.5371 41.485-24.103 59.286-24.107z" fill="#f60"/>
   <path d="m-549.94 431.47c6.5161 0.67527 12.137-11.406 28.571 5.8928 0.16874-1.5127-0.14009-4.2193 0.89285-3.5714 15.68 4.4726 11.667 2.381 17.5 3.5714 1.5732-14.297 12.1-25.61 20.357-37.679-21.102 16.412-48.077 34.217-58.393 23.214-2.5439-1.7348-3.6564 3.2804-8.9286 8.5714z" fill="#f4e3d7"/>
   <path d="m-359.63 369.06c13.95-1.0227 25.248 0.0432 8.6779 8.7017l9.869-0.49254c1.1221-9.2851-0.38125-16.236-18.547-8.2092z" fill="#a00"/>
   <path d="m-361.84 375.46c5.1544-3.156 4.4834-7.493 16.845-9.5226 5.3799 2.9636 5.5437 7.1115 3.2329 11.821-18.245-2.1519-19.321-1.0802-20.078-2.2986z" fill="#2b1100"/>
   <path d="m-345.73 375.25c0-1.6823-0.80579-5.5416-1.5339-7.3467-0.4738-1.1746 1.7676-1.6361 3.1731-0.65338 2.47 1.7272 3.4146 5.0581 2.3547 8.303-0.43896 1.3438-0.68292 1.5078-2.2432 1.5078-1.7265 0-1.7506-0.0249-1.7506-1.8108z" fill="#e3dedb" opacity=".58542"/>
   <path d="m-584.12 424.43 1.1364 3.1567c-4.59-3.0958-21.069 31.464-27.507 52.189 0.0157 7.8554 6.0742 6.1157 7.0509 6.7789-0.35289 2.9502-4.0088 2.1829-7.5761 1.5152 0 0-1.1218-6.8505-1.389-7.7024-0.75814-2.4178 25.114-60.013 28.284-55.937z" fill="#520"/>
   <path d="m-529.11 483.79c4.2682 0.90163 3.9768 4.083 4.6428 6.7857-6.181-2.9934-33.239 19.105-46.964 41.071-9.5148 6.131-1.4291 12.262-1.6071 18.393-1.6301-1.3356-3.1313-3.0258-6.6072 0.71429-0.9619-2.7529-1.8955-5.5679-5.1786-3.2143-2.885-1.0837-2.1617-5.5952 4.4643-15.714 17.083-16.132 34.167-35.741 51.25-48.036z" fill="#520"/>
   <path d="m-546.75 442.8 0.25254 5.3033c-6.9987 0.22014-19.601 13.804-31.125 22.413 0.19533-1.2351 1.4649-2.6655 1e-5 -3.5987 3.7091-3.0452 3.2476-4.5835 2.9673-6.1872 10.553-3.5877 19.141-10.928 27.905-17.93z" fill="#520"/>
   <path d="m-436.76 501.96c-0.52533 2.8065-2.3838 4.7243-4.9245 6.1872 5.2413 0.62541 10.11 3.2375 16.289-1.1364 12.295-8.3259 24.164-16.834 31.82-27.148 0.11978-2.1902 0.23848-4.3795-3.9143-3.283-7.9572 10.516-17.384 19.027-29.042 24.496-5.2995 2.1849-7.0299 0.80065-10.228 0.88388z" fill="#520"/>
  </g>
 </g>
</svg>
