<svg width="563.808740234375px" height="230.035009765625px" xmlns="http://www.w3.org/2000/svg" viewBox="-31.90437011718751 -40.0175048828125 563.808740234375 230.035009765625" style="background: none;" preserveAspectRatio="xMidYMid"><defs><filter id="editing-jagged" x="-100%" y="-100%" width="300%" height="300%"><feTurbulence result="turb" baseFrequency="0" numOctaves="1" seed="1"></feTurbulence><feDisplacementMap in="SourceGraphic" in2="turb" scale="0"></feDisplacementMap></filter></defs><g filter="url(#editing-jagged)"><g transform="translate(69.87655639648438, 125.0250015258789)"><path d="M45.53-90.63L84.10-90.63L84.10-90.63Q102.80-90.63 110.71-84.03L110.71-84.03L110.71-84.03Q118.61-77.43 118.61-62.64L118.61-62.64L118.61-62.64Q118.61-55.10 116.87-45.24L116.87-45.24L116.87-45.24Q112.52-20.88 102.01-10.44L102.01-10.44L102.01-10.44Q91.49 0 68.15 0L68.15 0L29.58 0L45.53-90.63ZM80.33-67.42L80.33-67.42L68.88-67.42L61.19-23.20L72.64-23.20L72.64-23.20Q78.30-23.20 81.05-24.58L81.05-24.58L81.05-24.58Q83.81-25.95 84.68-30.88L84.68-30.88L89.75-59.74L89.75-59.74Q89.90-60.61 89.90-62.06L89.90-62.06L89.90-62.06Q89.90-65.39 87.58-66.41L87.58-66.41L87.58-66.41Q85.26-67.42 80.33-67.42ZM26.39-6.96L25.23-0.43L-36.25-6.96L26.39-6.96ZM31.32-34.95L30.16-28.42L-31.32-34.95L31.32-34.95ZM33.78-48.86L32.63-42.34L-28.85-48.86L33.78-48.86ZM36.25-62.78L35.09-56.26L-26.39-62.78L36.25-62.78ZM38.57-76.70L37.55-70.18L-23.92-76.70L38.57-76.70ZM28.85-21.02L27.69-14.50L-33.78-21.02L28.85-21.02ZM41.03-90.63L39.88-84.10L-21.46-90.63L41.03-90.63ZM227.36 0L199.81 0L205.32-32.04L184.58-32.04L179.07 0L151.52 0L167.47-90.63L195.02-90.63L189.37-58.58L210.10-58.58L215.76-90.63L243.31-90.63L227.36 0ZM148.33-6.96L147.17-0.43L85.69-6.96L148.33-6.96ZM153.26-34.95L152.10-28.42L90.63-34.95L153.26-34.95ZM155.73-48.86L154.57-42.34L93.09-48.86L155.73-48.86ZM158.19-62.78L157.03-56.26L95.55-62.78L158.19-62.78ZM160.51-76.70L159.50-70.18L98.02-76.70L160.51-76.70ZM150.80-21.02L149.64-14.50L88.16-21.02L150.80-21.02ZM162.98-90.63L161.82-84.10L100.48-90.63L162.98-90.63ZM274.63-27.11L274.63-27.11L274.63-27.11Q274.63-34.22 276.66-45.89L276.66-45.89L276.66-45.89Q278.69-57.56 282.02-66.05L282.02-66.05L282.02-66.05Q285.36-74.53 291.01-80.77L291.01-80.77L291.01-80.77Q301.89-92.80 325.38-92.80L325.38-92.80L325.38-92.80Q343.65-92.80 351.55-85.48L351.55-85.48L351.55-85.48Q359.45-78.16 359.45-63.65L359.45-63.65L359.45-63.65Q359.45-49.15 355.25-35.89L355.25-35.89L355.25-35.89Q351.04-22.62 345.10-15.51L345.10-15.51L354.09-9.42L343.94 7.25L318.42 2.17L319.43-3.33L307.11 0L307.11 0Q289.56 0 282.10-7.03L282.10-7.03L282.10-7.03Q274.63-14.06 274.63-27.11ZM302.03-22.62L313.49-22.62L313.49-22.62Q319.14-22.62 321.90-24.00L321.90-24.00L321.90-24.00Q324.65-25.38 325.52-30.30L325.52-30.30L332.19-68.00L320.59-68.00L320.59-68.00Q315.08-68.00 312.33-66.63L312.33-66.63L312.33-66.63Q309.57-65.25 308.70-60.32L308.70-60.32L302.03-22.62ZM214.89-48.86L272.89-48.86L271.88-42.77L214.89-48.86ZM213.29-34.95L270.86-34.95L270.86-34.95Q270.42-31.61 270.42-28.85L270.42-28.85L213.29-34.95ZM218.37-62.78L276.37-62.78L274.63-56.84L218.37-62.78ZM215.18-21.02L270.57-21.02L270.57-21.02Q270.86-18.56 271.73-14.93L271.73-14.93L215.18-21.02ZM225.18-76.70L282.31-76.70L282.31-76.70Q280.28-72.93 279.41-70.91L279.41-70.91L225.18-76.70ZM229.10-6.96L275.79-6.96L275.79-6.96Q277.82-4.78 281.59-1.59L281.59-1.59L229.10-6.96ZM245.19-90.63L296.09-90.63L296.09-90.63Q291.88-88.02 289.56-85.84L289.56-85.84L245.19-90.63Z" fill="#444"></path></g></g><style>text {
  font-size: 64px;
  font-family: Arial Black;
  dominant-baseline: central;
  text-anchor: middle;
}</style></svg>